<svg width="160" height="160" viewBox="0 0 160 160" fill="none" xmlns="http://www.w3.org/2000/svg">
<path fill-rule="evenodd" clip-rule="evenodd" d="M79.7962 160C103.562 160 124.914 149.69 139.6 133.308C132.769 127.385 122.473 127.026 115.199 132.88L113.81 133.998C100.493 144.716 81.0884 143.134 69.6943 130.399C63.4798 123.454 52.8371 122.745 45.7517 128.804L29.7312 142.504C43.4525 153.453 60.8577 160 79.7962 160ZM105.8 121.261C118.485 111.052 136.313 111.418 148.513 121.279C155.805 109.227 160 95.1025 160 80C160 63.2186 154.82 47.6445 145.968 34.7807C140.261 33.5685 134.076 34.9843 129.38 39.1346L128.044 40.3159C115.237 51.6361 95.7796 50.948 83.8086 38.7522C77.2794 32.1007 66.6148 31.8821 59.8174 38.2608L41.1745 55.7552L30.9187 44.8818L49.562 27.3875C62.2949 15.4386 82.2721 15.8478 94.5029 28.3079C100.894 34.8184 111.28 35.1858 118.117 29.1427L119.453 27.9614C123.603 24.2932 128.405 21.8203 133.432 20.5197C119.223 7.76329 100.418 0 79.7962 0C39.0816 0 5.45268 30.2606 0.281663 69.4635C12.6483 63.5441 27.9025 65.8219 37.9858 76.1213C44.3515 82.6231 54.6009 83.3095 61.7807 77.7147L72.2045 69.5919C85.3043 59.3836 103.823 59.8777 116.357 70.7703L136.651 88.406L126.819 99.6621L106.525 82.0263C99.3981 75.8326 88.8679 75.5515 81.4187 81.3565L70.9953 89.4789C57.804 99.7585 38.9727 98.4975 27.2774 86.5515C20.4767 79.605 9.35403 79.3625 2.25566 86.0063L0 88.1173C1.68808 104.827 8.531 120.018 18.9184 132.086L36.0098 117.47C49.2824 106.12 69.2195 107.449 80.8608 120.459C86.9433 127.256 97.3019 128.101 104.411 122.38L105.8 121.261Z" fill="#9E1F19"/>
</svg>
