<svg width="160" height="160" viewBox="0 0 160 160" fill="none" xmlns="http://www.w3.org/2000/svg">
<path d="M80 158.333C123.262 158.333 158.333 123.262 158.333 79.9998C158.333 36.7375 123.262 1.6665 80 1.6665C36.7377 1.6665 1.66669 36.7375 1.66669 79.9998C1.66669 123.262 36.7377 158.333 80 158.333Z" fill="#0B53BF"/>
<path d="M94.1015 22.9629V33.0484C114.224 39.1192 128.96 57.8212 128.96 79.9994C128.96 102.178 114.224 120.88 94.1015 126.95V137.036C119.756 130.769 138.752 107.612 138.752 79.9994C138.752 52.3869 119.756 29.2296 94.1015 22.9629Z" fill="white"/>
<path d="M31.0417 79.9994C31.0417 57.8212 45.7782 39.1192 65.9 33.0484V22.9629C40.2458 29.2296 21.25 52.3869 21.25 79.9994C21.25 107.612 40.2458 130.769 65.9 137.036V126.95C45.7782 120.929 31.0417 102.178 31.0417 79.9994Z" fill="white"/>
<path d="M101.053 90.9175C101.053 70.8935 69.6708 79.1187 69.6708 68.054C69.6708 64.0883 72.8532 61.5425 78.924 61.5425C86.1698 61.5425 88.6666 65.0675 89.45 69.8165H99.4375C98.5465 60.9042 93.4313 55.2768 84.897 53.6005V45.729H75.1053V53.3195C65.7557 54.5102 59.8792 59.9548 59.8792 68.054C59.8792 88.1758 91.3105 80.6363 91.3105 91.505C91.3105 95.6175 87.3448 98.3592 80.6375 98.3592C71.874 98.3592 68.9855 94.4915 67.9083 89.155H58.1656C58.7968 98.9168 64.8162 105.026 75.1053 106.551V114.271H84.897V106.654C94.9388 105.356 101.053 99.5147 101.053 90.9175Z" fill="white"/>
</svg>
